<mxfile host="app.diagrams.net" modified="2021-10-29T08:38:15.088Z" agent="5.0 (Windows NT 10.0; Win64; x64) AppleWebKit/537.36 (KHTML, like Gecko) Chrome/95.0.4638.54 Safari/537.36" etag="NZlZrrSiME_ACk-juNBi" version="15.5.9" type="github">
  <diagram id="CDoZhnyvnymAVbi4PAMj" name="Page-1">
    <mxGraphModel dx="6810" dy="3465" grid="1" gridSize="10" guides="1" tooltips="1" connect="1" arrows="1" fold="1" page="1" pageScale="1" pageWidth="850" pageHeight="1100" math="0" shadow="0">
      <root>
        <mxCell id="0" />
        <mxCell id="1" parent="0" />
        <mxCell id="x80hW29TsDqjKM8EVXJ8-1" value="&lt;font style=&quot;font-size: 72px&quot;&gt;&lt;b&gt;Resource Group&lt;/b&gt;&lt;/font&gt;" style="fontStyle=0;verticalAlign=top;align=center;spacingTop=-2;rounded=0;whiteSpace=wrap;html=1;strokeWidth=10;container=1;collapsible=0;expand=0;recursiveResize=0;shadow=0;fillColor=#f5f5f5;fontColor=#333333;strokeColor=#666666;" vertex="1" parent="1">
          <mxGeometry x="-1040" y="-480" width="3250" height="1890" as="geometry" />
        </mxCell>
        <mxCell id="x80hW29TsDqjKM8EVXJ8-2" value="&lt;font style=&quot;font-size: 48px&quot;&gt;Azure Databricks&lt;/font&gt;" style="aspect=fixed;html=1;points=[];align=center;image;fontSize=12;image=img/lib/azure2/analytics/Azure_Databricks.svg;" vertex="1" parent="x80hW29TsDqjKM8EVXJ8-1">
          <mxGeometry x="2830" y="1260" width="247.06" height="280" as="geometry" />
        </mxCell>
        <mxCell id="x80hW29TsDqjKM8EVXJ8-3" value="Clusters&#xa;" style="swimlane;startSize=0;fontSize=60;align=center;fillColor=#D5E8D4;strokeColor=#000000;rounded=0;strokeWidth=2;swimlaneFillColor=none;labelPosition=center;verticalLabelPosition=bottom;verticalAlign=top;" vertex="1" parent="x80hW29TsDqjKM8EVXJ8-1">
          <mxGeometry x="1640" y="1170" width="940" height="540" as="geometry" />
        </mxCell>
        <mxCell id="x80hW29TsDqjKM8EVXJ8-5" value="&lt;font style=&quot;font-size: 48px&quot;&gt;Compute Cluster&lt;/font&gt;" style="aspect=fixed;html=1;points=[];align=center;image;fontSize=12;image=img/lib/azure2/compute/VM_Scale_Sets.svg;rounded=0;shadow=0;strokeWidth=2;fillColor=#D5E8D4;gradientColor=none;" vertex="1" parent="x80hW29TsDqjKM8EVXJ8-3">
          <mxGeometry x="100" y="135" width="230" height="230" as="geometry" />
        </mxCell>
        <mxCell id="x80hW29TsDqjKM8EVXJ8-6" value="&lt;font style=&quot;font-size: 48px&quot;&gt;Job Cluster&lt;/font&gt;" style="aspect=fixed;html=1;points=[];align=center;image;fontSize=12;image=img/lib/azure2/compute/VM_Scale_Sets.svg;rounded=0;shadow=0;strokeWidth=2;fillColor=#D5E8D4;gradientColor=none;" vertex="1" parent="x80hW29TsDqjKM8EVXJ8-3">
          <mxGeometry x="600" y="135" width="230" height="230" as="geometry" />
        </mxCell>
        <mxCell id="x80hW29TsDqjKM8EVXJ8-8" value="Databricks Workspace&#xa;" style="swimlane;startSize=0;fontSize=60;align=center;fillColor=#D5E8D4;strokeColor=#000000;rounded=0;strokeWidth=2;swimlaneFillColor=none;labelPosition=center;verticalLabelPosition=bottom;verticalAlign=top;" vertex="1" parent="x80hW29TsDqjKM8EVXJ8-1">
          <mxGeometry x="340" y="1180" width="1155" height="540" as="geometry" />
        </mxCell>
        <mxCell id="x80hW29TsDqjKM8EVXJ8-11" value="Notebooks" style="sketch=0;aspect=fixed;pointerEvents=1;shadow=0;dashed=0;html=1;strokeColor=none;labelPosition=center;verticalLabelPosition=bottom;verticalAlign=top;align=center;fillColor=#00188D;shape=mxgraph.azure.script_file;rounded=0;fontSize=48;" vertex="1" parent="x80hW29TsDqjKM8EVXJ8-8">
          <mxGeometry x="275" y="130.87" width="205" height="218.09" as="geometry" />
        </mxCell>
        <mxCell id="x80hW29TsDqjKM8EVXJ8-36" value="Tables" style="shape=image;verticalLabelPosition=bottom;labelBackgroundColor=#ffffff;verticalAlign=top;aspect=fixed;imageAspect=0;image=data:image/svg+xml,PHN2ZyB4bWxuczpjYz0iaHR0cDovL2NyZWF0aXZlY29tbW9ucy5vcmcvbnMjIiB4bWxuczpkYz0iaHR0cDovL3B1cmwub3JnL2RjL2VsZW1lbnRzLzEuMS8iIHhtbG5zOmlua3NjYXBlPSJodHRwOi8vd3d3Lmlua3NjYXBlLm9yZy9uYW1lc3BhY2VzL2lua3NjYXBlIiB4bWxuczpyZGY9Imh0dHA6Ly93d3cudzMub3JnLzE5OTkvMDIvMjItcmRmLXN5bnRheC1ucyMiIHhtbG5zOnNvZGlwb2RpPSJodHRwOi8vc29kaXBvZGkuc291cmNlZm9yZ2UubmV0L0RURC9zb2RpcG9kaS0wLmR0ZCIgeG1sbnM6c3ZnPSJodHRwOi8vd3d3LnczLm9yZy8yMDAwL3N2ZyIgeG1sbnM9Imh0dHA6Ly93d3cudzMub3JnLzIwMDAvc3ZnIiB4bWxuczp4bGluaz0iaHR0cDovL3d3dy53My5vcmcvMTk5OS94bGluayIgdmVyc2lvbj0iMS4xIiBpZD0ic3ZnMTA4Mzc5IiBpbmtzY2FwZTp2ZXJzaW9uPSIwLjkyLjMgKDI0MDU1NDYsIDIwMTgtMDMtMTEpIiBzb2RpcG9kaTpkb2NuYW1lPSJ0YWJsZXNfMS5zdmciIHg9IjBweCIgeT0iMHB4IiB2aWV3Qm94PSIwIDAgNTMuNDggNDYuNjciIHN0eWxlPSJlbmFibGUtYmFja2dyb3VuZDpuZXcgMCAwIDUzLjQ4IDQ2LjY3OyIgeG1sOnNwYWNlPSJwcmVzZXJ2ZSI+JiN4YTs8c29kaXBvZGk6bmFtZWR2aWV3IGJvcmRlcmNvbG9yPSIjNjY2NjY2IiBib3JkZXJvcGFjaXR5PSIxIiBmaXQtbWFyZ2luLWJvdHRvbT0iMCIgZml0LW1hcmdpbi1sZWZ0PSIwIiBmaXQtbWFyZ2luLXJpZ2h0PSIwIiBmaXQtbWFyZ2luLXRvcD0iMCIgZ3JpZHRvbGVyYW5jZT0iMTAiIGd1aWRldG9sZXJhbmNlPSIxMCIgaWQ9Im5hbWVkdmlldzEwODM4MSIgaW5rc2NhcGU6Y3VycmVudC1sYXllcj0ic3ZnMTA4Mzc5IiBpbmtzY2FwZTpjeD0iMzUuNjUyNTciIGlua3NjYXBlOmN5PSIzMS4xMTE1NzIiIGlua3NjYXBlOnBhZ2VvcGFjaXR5PSIwIiBpbmtzY2FwZTpwYWdlc2hhZG93PSIyIiBpbmtzY2FwZTp3aW5kb3ctaGVpZ2h0PSIxMDE3IiBpbmtzY2FwZTp3aW5kb3ctbWF4aW1pemVkPSIxIiBpbmtzY2FwZTp3aW5kb3ctd2lkdGg9IjE5MjAiIGlua3NjYXBlOndpbmRvdy14PSItOCIgaW5rc2NhcGU6d2luZG93LXk9Ii04IiBpbmtzY2FwZTp6b29tPSIxMy45MzIxNjkiIG9iamVjdHRvbGVyYW5jZT0iMTAiIHBhZ2Vjb2xvcj0iI2ZmZmZmZiIgc2hvd2dyaWQ9ImZhbHNlIj4mI3hhOwk8L3NvZGlwb2RpOm5hbWVkdmlldz4mI3hhOzxnIGlkPSJnMTA4Mzc3IiB0cmFuc2Zvcm09InRyYW5zbGF0ZSgtMy45NzMzODM3ZS01KSI+JiN4YTsJPHRpdGxlIGlkPSJ0aXRsZTEwODM3MCI+UGFnZS0xPC90aXRsZT4mI3hhOwk8ZyBpZD0ic2hhcGUzOTI5LTEiPiYjeGE7CQk8dGl0bGUgaWQ9InRpdGxlMTA4MzcyIj5UYWJsZXMgIzE8L3RpdGxlPiYjeGE7CQk8cGF0aCBpZD0icGF0aDEwODM3NCIgaW5rc2NhcGU6Y29ubmVjdG9yLWN1cnZhdHVyZT0iMCIgc3R5bGU9ImZpbGw6IzNGNTc2NTsiIGQ9Ik01Mi4zNiwwQzEuMTMsMCwxLjEzLDAsMS4xMywwICAgIEMwLjQ3LDAsMCwwLjQ3LDAsMS4xM2MwLDQ0LjQyLDAsNDQuNDIsMCw0NC40MmMwLDAuNTYsMC40NywxLjEyLDEuMTMsMS4xMmM1MS4yMywwLDUxLjIzLDAsNTEuMjMsMGMwLjU2LDAsMS4xMi0wLjU2LDEuMTItMS4xMiAgICBjMC00NC40MiwwLTQ0LjQyLDAtNDQuNDJDNTMuNDgsMC40Nyw1Mi45MiwwLDUyLjM2LDB6IE0xMi45NSw0My40YzAtNi4zNiwwLTYuMzYsMC02LjM2YzcuOTcsMCw3Ljk3LDAsNy45NywwICAgIGMwLDYuMzYsMCw2LjM2LDAsNi4zNkgxMi45NXogTTIwLjkyLDIwLjExYzAsNi41NSwwLDYuNTUsMCw2LjU1Yy03Ljk3LDAtNy45NywwLTcuOTcsMGMwLTYuNTUsMC02LjU1LDAtNi41NUgyMC45MnogTTEyLjk1LDE4LjI0ICAgIGMwLTYuNjQsMC02LjY0LDAtNi42NGM3Ljk3LDAsNy45NywwLDcuOTcsMGMwLDYuNjQsMCw2LjY0LDAsNi42NEgxMi45NXogTTIwLjkyLDI4LjUzYzAsNi42NCwwLDYuNjQsMCw2LjY0ICAgIGMtNy45NywwLTcuOTcsMC03Ljk3LDBjMC02LjY0LDAtNi42NCwwLTYuNjRIMjAuOTJ6IE0yMi44LDQzLjRjMC02LjM2LDAtNi4zNiwwLTYuMzZjNy44OCwwLDcuODgsMCw3Ljg4LDBjMCw2LjM2LDAsNi4zNiwwLDYuMzYgICAgSDIyLjh6IE0zMC42OCwyMC4xMWMwLDYuNTUsMCw2LjU1LDAsNi41NWMtNy44OCwwLTcuODgsMC03Ljg4LDBjMC02LjU1LDAtNi41NSwwLTYuNTVIMzAuNjh6IE0yMi44LDE4LjI0YzAtNi42NCwwLTYuNjQsMC02LjY0ICAgIGM3Ljg4LDAsNy44OCwwLDcuODgsMGMwLDYuNjQsMCw2LjY0LDAsNi42NEgyMi44eiBNMzAuNjgsMjguNTNjMCw2LjY0LDAsNi42NCwwLDYuNjRjLTcuODgsMC03Ljg4LDAtNy44OCwwYzAtNi42NCwwLTYuNjQsMC02LjY0ICAgIEgzMC42OHogTTMyLjU2LDQzLjRjMC02LjM2LDAtNi4zNiwwLTYuMzZjNy45NywwLDcuOTcsMCw3Ljk3LDBjMCw2LjM2LDAsNi4zNiwwLDYuMzZIMzIuNTZ6IE00MC41MywyMC4xMWMwLDYuNTUsMCw2LjU1LDAsNi41NSAgICBjLTcuOTcsMC03Ljk3LDAtNy45NywwYzAtNi41NSwwLTYuNTUsMC02LjU1SDQwLjUzeiBNMzIuNTYsMTguMjRjMC02LjY0LDAtNi42NCwwLTYuNjRjNy45NywwLDcuOTcsMCw3Ljk3LDAgICAgYzAsNi42NCwwLDYuNjQsMCw2LjY0SDMyLjU2eiBNNDAuNTMsMjguNTNjMCw2LjY0LDAsNi42NCwwLDYuNjRjLTcuOTcsMC03Ljk3LDAtNy45NywwYzAtNi42NCwwLTYuNjQsMC02LjY0SDQwLjUzeiBNNDIuNDEsNDMuNCAgICBjMC02LjM2LDAtNi4zNiwwLTYuMzZjNy43OSwwLDcuNzksMCw3Ljc5LDBjMCw2LjM2LDAsNi4zNiwwLDYuMzZINDIuNDF6IE00Mi40MSwzNS4xN2MwLTYuNjQsMC02LjY0LDAtNi42NGM3Ljc5LDAsNy43OSwwLDcuNzksMCAgICBjMCw2LjY0LDAsNi42NCwwLDYuNjRINDIuNDF6IE00Mi40MSwyNi42NmMwLTYuNTUsMC02LjU1LDAtNi41NWM3Ljc5LDAsNy43OSwwLDcuNzksMGMwLDYuNTUsMCw2LjU1LDAsNi41NUw0Mi40MSwyNi42NnogICAgIE00Mi40MSwxOC4yNGMwLTYuNjQsMC02LjY0LDAtNi42NGM3Ljc5LDAsNy43OSwwLDcuNzksMGMwLDYuNjQsMCw2LjY0LDAsNi42NEg0Mi40MXogTTUwLjIsMy4yN2MwLDYuNDYsMCw2LjQ2LDAsNi40NiAgICBjLTcuNzksMC03Ljc5LDAtNy43OSwwYzAtNi40NiwwLTYuNDYsMC02LjQ2TDUwLjIsMy4yN3ogTTQwLjUzLDMuMjdjMCw2LjQ2LDAsNi40NiwwLDYuNDZjLTcuOTcsMC03Ljk3LDAtNy45NywwICAgIGMwLTYuNDYsMC02LjQ2LDAtNi40Nkw0MC41MywzLjI3eiBNMzAuNjgsMy4yN2MwLDYuNDYsMCw2LjQ2LDAsNi40NmMtNy44OCwwLTcuODgsMC03Ljg4LDBjMC02LjQ2LDAtNi40NiwwLTYuNDZMMzAuNjgsMy4yN3ogICAgIE0yMC45MiwzLjI3YzAsNi40NiwwLDYuNDYsMCw2LjQ2Yy03Ljk3LDAtNy45NywwLTcuOTcsMGMwLTYuNDYsMC02LjQ2LDAtNi40NkwyMC45MiwzLjI3eiBNMTEuMDcsOS43M2MtNy43OSwwLTcuNzksMC03Ljc5LDAgICAgYzAtNi40NiwwLTYuNDYsMC02LjQ2YzcuNzksMCw3Ljc5LDAsNy43OSwwVjkuNzN6IE0xMS4wNywxMS42YzAsNi42NCwwLDYuNjQsMCw2LjY0Yy03Ljc5LDAtNy43OSwwLTcuNzksMGMwLTYuNjQsMC02LjY0LDAtNi42NCAgICBMMTEuMDcsMTEuNnogTTExLjA3LDIwLjExYzAsNi41NSwwLDYuNTUsMCw2LjU1Yy03Ljc5LDAtNy43OSwwLTcuNzksMGMwLTYuNTUsMC02LjU1LDAtNi41NUgxMS4wN3ogTTExLjA3LDI4LjUzICAgIGMwLDYuNjQsMCw2LjY0LDAsNi42NGMtNy43OSwwLTcuNzksMC03Ljc5LDBjMC02LjY0LDAtNi42NCwwLTYuNjRMMTEuMDcsMjguNTN6IE0xMS4wNywzNy4wNGMwLDYuMzYsMCw2LjM2LDAsNi4zNiAgICBjLTcuNzksMC03Ljc5LDAtNy43OSwwYzAtNi4zNiwwLTYuMzYsMC02LjM2SDExLjA3eiIvPiYjeGE7CTwvZz4mI3hhOzwvZz4mI3hhOzwvc3ZnPg==;rounded=0;shadow=0;fontSize=60;strokeColor=#000000;strokeWidth=2;fillColor=#D5E8D4;gradientColor=none;" vertex="1" parent="x80hW29TsDqjKM8EVXJ8-8">
          <mxGeometry x="740" y="140" width="235.64" height="208.96" as="geometry" />
        </mxCell>
        <mxCell id="x80hW29TsDqjKM8EVXJ8-37" value="" style="endArrow=open;startArrow=none;endFill=0;startFill=0;endSize=8;html=1;verticalAlign=bottom;labelBackgroundColor=none;strokeWidth=10;rounded=0;fontSize=48;entryX=0;entryY=0.5;entryDx=0;entryDy=0;exitX=1;exitY=0.5;exitDx=0;exitDy=0;exitPerimeter=0;" edge="1" parent="x80hW29TsDqjKM8EVXJ8-8" source="x80hW29TsDqjKM8EVXJ8-11" target="x80hW29TsDqjKM8EVXJ8-36">
          <mxGeometry width="160" relative="1" as="geometry">
            <mxPoint x="395" y="210" as="sourcePoint" />
            <mxPoint x="500" y="-160" as="targetPoint" />
          </mxGeometry>
        </mxCell>
        <mxCell id="x80hW29TsDqjKM8EVXJ8-33" value="" style="endArrow=open;startArrow=none;endFill=0;startFill=0;endSize=8;html=1;verticalAlign=bottom;labelBackgroundColor=none;strokeWidth=10;rounded=0;fontSize=48;exitX=0.5;exitY=0;exitDx=0;exitDy=0;exitPerimeter=0;entryX=0.5;entryY=1;entryDx=0;entryDy=0;" edge="1" parent="x80hW29TsDqjKM8EVXJ8-1" source="x80hW29TsDqjKM8EVXJ8-11" target="x80hW29TsDqjKM8EVXJ8-15">
          <mxGeometry width="160" relative="1" as="geometry">
            <mxPoint x="1390" y="890" as="sourcePoint" />
            <mxPoint x="1550" y="890" as="targetPoint" />
          </mxGeometry>
        </mxCell>
        <mxCell id="x80hW29TsDqjKM8EVXJ8-7" value="" style="swimlane;startSize=0;rounded=0;shadow=0;fontSize=48;strokeColor=#000000;strokeWidth=2;fillColor=#7EA6E0;gradientColor=none;align=center;" vertex="1" parent="x80hW29TsDqjKM8EVXJ8-1">
          <mxGeometry x="140" y="100" width="2980" height="970" as="geometry" />
        </mxCell>
        <mxCell id="x80hW29TsDqjKM8EVXJ8-15" value="Tracking&#xa;" style="swimlane;startSize=0;rounded=0;shadow=0;fontSize=60;strokeColor=#000000;strokeWidth=2;fillColor=#D5E8D4;gradientColor=none;align=center;labelBackgroundColor=default;" vertex="1" parent="x80hW29TsDqjKM8EVXJ8-7">
          <mxGeometry x="100" y="320" width="740" height="540" as="geometry" />
        </mxCell>
        <mxCell id="x80hW29TsDqjKM8EVXJ8-25" value="experiments" style="shape=image;verticalLabelPosition=bottom;labelBackgroundColor=#ffffff;verticalAlign=top;aspect=fixed;imageAspect=0;image=data:image/svg+xml,PHN2ZyB4bWxuczpjYz0iaHR0cDovL2NyZWF0aXZlY29tbW9ucy5vcmcvbnMjIiB4bWxuczpkYz0iaHR0cDovL3B1cmwub3JnL2RjL2VsZW1lbnRzLzEuMS8iIHhtbG5zOmlua3NjYXBlPSJodHRwOi8vd3d3Lmlua3NjYXBlLm9yZy9uYW1lc3BhY2VzL2lua3NjYXBlIiB4bWxuczpyZGY9Imh0dHA6Ly93d3cudzMub3JnLzE5OTkvMDIvMjItcmRmLXN5bnRheC1ucyMiIHhtbG5zOnNvZGlwb2RpPSJodHRwOi8vc29kaXBvZGkuc291cmNlZm9yZ2UubmV0L0RURC9zb2RpcG9kaS0wLmR0ZCIgeG1sbnM6c3ZnPSJodHRwOi8vd3d3LnczLm9yZy8yMDAwL3N2ZyIgeG1sbnM9Imh0dHA6Ly93d3cudzMub3JnLzIwMDAvc3ZnIiB4bWxuczp4bGluaz0iaHR0cDovL3d3dy53My5vcmcvMTk5OS94bGluayIgdmVyc2lvbj0iMS4xIiBpZD0ic3ZnODM1OTMiIGlua3NjYXBlOnZlcnNpb249IjAuOTIuMyAoMjQwNTU0NiwgMjAxOC0wMy0xMSkiIHNvZGlwb2RpOmRvY25hbWU9Im1hY2hpbmVfbGVhcm5pbmdfMS5zdmciIHg9IjBweCIgeT0iMHB4IiB2aWV3Qm94PSIwIDAgNDUgNDgiIHN0eWxlPSJlbmFibGUtYmFja2dyb3VuZDpuZXcgMCAwIDQ1IDQ4OyIgeG1sOnNwYWNlPSJwcmVzZXJ2ZSI+JiN4YTs8c29kaXBvZGk6bmFtZWR2aWV3IGJvcmRlcmNvbG9yPSIjNjY2NjY2IiBib3JkZXJvcGFjaXR5PSIxIiBmaXQtbWFyZ2luLWJvdHRvbT0iMCIgZml0LW1hcmdpbi1sZWZ0PSIwIiBmaXQtbWFyZ2luLXJpZ2h0PSIwIiBmaXQtbWFyZ2luLXRvcD0iMCIgZ3JpZHRvbGVyYW5jZT0iMTAiIGd1aWRldG9sZXJhbmNlPSIxMCIgaWQ9Im5hbWVkdmlldzgzNTk1IiBpbmtzY2FwZTpjdXJyZW50LWxheWVyPSJzdmc4MzU5MyIgaW5rc2NhcGU6Y3g9IjMzLjMxNzk4NyIgaW5rc2NhcGU6Y3k9IjIzLjQzOTA5MyIgaW5rc2NhcGU6cGFnZW9wYWNpdHk9IjAiIGlua3NjYXBlOnBhZ2VzaGFkb3c9IjIiIGlua3NjYXBlOndpbmRvdy1oZWlnaHQ9IjEwMTciIGlua3NjYXBlOndpbmRvdy1tYXhpbWl6ZWQ9IjEiIGlua3NjYXBlOndpbmRvdy13aWR0aD0iMTkyMCIgaW5rc2NhcGU6d2luZG93LXg9Ii04IiBpbmtzY2FwZTp3aW5kb3cteT0iLTgiIGlua3NjYXBlOnpvb209IjkuMjg4ODExOCIgb2JqZWN0dG9sZXJhbmNlPSIxMCIgcGFnZWNvbG9yPSIjZmZmZmZmIiBzaG93Z3JpZD0iZmFsc2UiPiYjeGE7CTwvc29kaXBvZGk6bmFtZWR2aWV3PiYjeGE7PGcgaWQ9Imc4MzU5MSIgdHJhbnNmb3JtPSJ0cmFuc2xhdGUoLTAuNzUsLTAuNzUwMDAwNjEpIj4mI3hhOwk8dGl0bGUgaWQ9InRpdGxlODM1NjYiPlBhZ2UtMTwvdGl0bGU+JiN4YTsJPGcgaWQ9Imdyb3VwNTA3NS0xIiB0cmFuc2Zvcm09InRyYW5zbGF0ZSgwLjc1LC0wLjc1KSI+JiN4YTsJCTx0aXRsZSBpZD0idGl0bGU4MzU2OCI+TWFjaGluZSBMZWFybmluZyAjMS41MDY8L3RpdGxlPiYjeGE7CQk8ZyBpZD0ic2hhcGU1MDc2LTIiIHRyYW5zZm9ybT0idHJhbnNsYXRlKDE2LjQ3LC0yOS45ODUpIj4mI3hhOwkJCTx0aXRsZSBpZD0idGl0bGU4MzU3MCI+cmVjdDE1MDE1PC90aXRsZT4mI3hhOwkJCSYjeGE7CQkJCTxyYWRpYWxHcmFkaWVudCBpZD0icmVjdDgzNTcyXzFfIiBjeD0iNTUuMDUzOCIgY3k9IjExNy4wNjI3IiByPSI3LjM0MjMiIGdyYWRpZW50VHJhbnNmb3JtPSJtYXRyaXgoMC44MTUxIDAgMCAtMS4yMjY4IC0zOC44OTEzIDE4NC4xMDM5KSIgZ3JhZGllbnRVbml0cz0idXNlclNwYWNlT25Vc2UiPiYjeGE7CQkJCTxzdG9wIG9mZnNldD0iMCIgc3R5bGU9InN0b3AtY29sb3I6IzBFOTBDRiIvPiYjeGE7CQkJCTxzdG9wIG9mZnNldD0iMSIgc3R5bGU9InN0b3AtY29sb3I6IzAwNkRBQSIvPiYjeGE7CQkJPC9yYWRpYWxHcmFkaWVudD4mI3hhOwkJCTxyZWN0IGlkPSJyZWN0ODM1NzIiIHg9IjAiIHk9IjMxLjQ5IiBzdHlsZT0iZmlsbDp1cmwoI3JlY3Q4MzU3Ml8xXyk7IiB3aWR0aD0iMTEuOTciIGhlaWdodD0iMTguMDEiLz4mI3hhOwkJPC9nPiYjeGE7CQk8ZyBpZD0ic2hhcGU1MDc3LTYiPiYjeGE7CQkJPHRpdGxlIGlkPSJ0aXRsZTgzNTc1Ij5wb2x5Z29uMTUwMTc8L3RpdGxlPiYjeGE7CQkJJiN4YTsJCQkJPHJhZGlhbEdyYWRpZW50IGlkPSJwYXRoODM1NzdfMV8iIGN4PSItMTI1LjM3MiIgY3k9Ii0zODAuODY0OSIgcj0iMTEuNjA5MyIgZ3JhZGllbnRUcmFuc2Zvcm09Im1hdHJpeCgxLjkzODEgMCAwIC0wLjUxNiAyNjUuNDg0NCAtMTUzLjAwMzgpIiBncmFkaWVudFVuaXRzPSJ1c2VyU3BhY2VPblVzZSI+JiN4YTsJCQkJPHN0b3Agb2Zmc2V0PSIwIiBzdHlsZT0ic3RvcC1jb2xvcjojMUE0NDdBIi8+JiN4YTsJCQkJPHN0b3Agb2Zmc2V0PSIwLjI3IiBzdHlsZT0ic3RvcC1jb2xvcjojMTYzRTY4Ii8+JiN4YTsJCQkJPHN0b3Agb2Zmc2V0PSIwLjcyIiBzdHlsZT0ic3RvcC1jb2xvcjojMTAzNjUxIi8+JiN4YTsJCQkJPHN0b3Agb2Zmc2V0PSIxIiBzdHlsZT0ic3RvcC1jb2xvcjojMEUzMzQ4Ii8+JiN4YTsJCQk8L3JhZGlhbEdyYWRpZW50PiYjeGE7CQkJPHBhdGggaWQ9InBhdGg4MzU3NyIgaW5rc2NhcGU6Y29ubmVjdG9yLWN1cnZhdHVyZT0iMCIgc3R5bGU9ImZpbGw6dXJsKCNwYXRoODM1NzdfMV8pOyIgZD0iTTAsMzcuNTJoNDVMNDIuMDMsNDkuNUgyLjk3TDAsMzcuNTIgICAgIHoiLz4mI3hhOwkJPC9nPiYjeGE7CQk8ZyBpZD0ic2hhcGU1MDc4LTEwIj4mI3hhOwkJCTx0aXRsZSBpZD0idGl0bGU4MzU4MCI+cG9seWdvbjE1MDE5PC90aXRsZT4mI3hhOwkJCSYjeGE7CQkJCTxyYWRpYWxHcmFkaWVudCBpZD0icGF0aDgzNTgyXzFfIiBjeD0iMjEuNzc2MyIgY3k9IjI2Ljk4ODgiIHI9IjE0LjYyNTQiIGdyYWRpZW50VHJhbnNmb3JtPSJtYXRyaXgoMC45NzU0IDAgMCAtMS4wMjUzIC02Ljk3NDYgNjIuMTc1NykiIGdyYWRpZW50VW5pdHM9InVzZXJTcGFjZU9uVXNlIj4mI3hhOwkJCQk8c3RvcCBvZmZzZXQ9IjAiIHN0eWxlPSJzdG9wLWNvbG9yOiM0OUJERUEiLz4mI3hhOwkJCQk8c3RvcCBvZmZzZXQ9IjAuMzYiIHN0eWxlPSJzdG9wLWNvbG9yOiMyRUE0REUiLz4mI3hhOwkJCQk8c3RvcCBvZmZzZXQ9IjAuNzUiIHN0eWxlPSJzdG9wLWNvbG9yOiMxNzhFRDMiLz4mI3hhOwkJCQk8c3RvcCBvZmZzZXQ9IjEiIHN0eWxlPSJzdG9wLWNvbG9yOiMwRTg2Q0YiLz4mI3hhOwkJCTwvcmFkaWFsR3JhZGllbnQ+JiN4YTsJCQk8cGF0aCBpZD0icGF0aDgzNTgyIiBpbmtzY2FwZTpjb25uZWN0b3ItY3VydmF0dXJlPSIwIiBzdHlsZT0iZmlsbDp1cmwoI3BhdGg4MzU4Ml8xXyk7IiBkPSJNMTYuNDcsMTkuNTFoMTIuMDZMMi45Nyw0OS41ICAgICBMMCwzNy41MkwxNi40NywxOS41MXoiLz4mI3hhOwkJPC9nPiYjeGE7CQk8ZyBpZD0ic2hhcGU1MDc5LTE0IiB0cmFuc2Zvcm09InRyYW5zbGF0ZSgyNC4wMykiPiYjeGE7CQkJPHRpdGxlIGlkPSJ0aXRsZTgzNTg1Ij5wb2x5Z29uMTUwMjE8L3RpdGxlPiYjeGE7CQkJJiN4YTsJCQkJPHJhZGlhbEdyYWRpZW50IGlkPSJwYXRoODM1ODdfMV8iIGN4PSIyNi4xMTIiIGN5PSI2My45NTc4IiByPSIxMS45MDE4IiBncmFkaWVudFRyYW5zZm9ybT0ibWF0cml4KDAuODgxIDAgMCAtMS4xMzUxIC0xMi41MTg2IDEwOC41OTAxKSIgZ3JhZGllbnRVbml0cz0idXNlclNwYWNlT25Vc2UiPiYjeGE7CQkJCTxzdG9wIG9mZnNldD0iMCIgc3R5bGU9InN0b3AtY29sb3I6IzBFOTBDRiIvPiYjeGE7CQkJCTxzdG9wIG9mZnNldD0iMSIgc3R5bGU9InN0b3AtY29sb3I6IzAwNkRBQSIvPiYjeGE7CQkJPC9yYWRpYWxHcmFkaWVudD4mI3hhOwkJCTxwYXRoIGlkPSJwYXRoODM1ODciIGlua3NjYXBlOmNvbm5lY3Rvci1jdXJ2YXR1cmU9IjAiIHN0eWxlPSJmaWxsOnVybCgjcGF0aDgzNTg3XzFfKTsiIGQ9Ik03LjQ3LDIyLjQ4bDEzLjUsMTUuMDRMMTgsNDkuNSAgICAgTDAsMzEuNDhMNy40NywyMi40OHoiLz4mI3hhOwkJPC9nPiYjeGE7CTwvZz4mI3hhOzwvZz4mI3hhOzwvc3ZnPg==;rounded=0;shadow=0;fontSize=48;strokeColor=#000000;strokeWidth=2;fillColor=#D5E8D4;gradientColor=none;" vertex="1" parent="x80hW29TsDqjKM8EVXJ8-15">
          <mxGeometry x="180" y="49.58" width="140.63" height="150" as="geometry" />
        </mxCell>
        <mxCell id="x80hW29TsDqjKM8EVXJ8-26" value="&lt;font style=&quot;font-size: 48px&quot;&gt;Metrics&lt;/font&gt;" style="aspect=fixed;html=1;points=[];align=center;image;fontSize=12;image=img/lib/azure2/management_governance/Metrics.svg;rounded=0;shadow=0;strokeColor=#000000;strokeWidth=2;fillColor=#D5E8D4;gradientColor=none;" vertex="1" parent="x80hW29TsDqjKM8EVXJ8-15">
          <mxGeometry x="520" y="289.17" width="157.68" height="170.83" as="geometry" />
        </mxCell>
        <mxCell id="x80hW29TsDqjKM8EVXJ8-27" value="&lt;font style=&quot;font-size: 48px&quot;&gt;Artifacts&lt;/font&gt;" style="sketch=0;aspect=fixed;html=1;points=[];align=center;image;fontSize=12;image=img/lib/mscae/Azure_Artifacts.svg;rounded=0;shadow=0;strokeColor=#000000;strokeWidth=2;fillColor=#D5E8D4;gradientColor=none;" vertex="1" parent="x80hW29TsDqjKM8EVXJ8-15">
          <mxGeometry x="175.32" y="310" width="150" height="150" as="geometry" />
        </mxCell>
        <mxCell id="x80hW29TsDqjKM8EVXJ8-28" value="Runs" style="sketch=0;aspect=fixed;pointerEvents=1;shadow=0;dashed=0;html=1;strokeColor=none;labelPosition=center;verticalLabelPosition=bottom;verticalAlign=top;align=center;fillColor=#00188D;shape=mxgraph.mscae.enterprise.settings;rounded=0;fontSize=48;" vertex="1" parent="x80hW29TsDqjKM8EVXJ8-15">
          <mxGeometry x="547.68" y="69.58" width="130" height="130" as="geometry" />
        </mxCell>
        <mxCell id="x80hW29TsDqjKM8EVXJ8-22" value="Models&#xa;" style="swimlane;startSize=0;rounded=0;shadow=0;fontSize=60;strokeColor=#000000;strokeWidth=2;fillColor=#D5E8D4;gradientColor=none;align=center;" vertex="1" parent="x80hW29TsDqjKM8EVXJ8-7">
          <mxGeometry x="1090" y="325" width="830" height="535" as="geometry" />
        </mxCell>
        <mxCell id="x80hW29TsDqjKM8EVXJ8-38" value="&lt;font style=&quot;font-size: 48px&quot;&gt;V1&lt;/font&gt;" style="sketch=0;outlineConnect=0;fontColor=#232F3E;gradientColor=none;fillColor=#56C0A7;strokeColor=none;dashed=0;verticalLabelPosition=bottom;verticalAlign=top;align=center;html=1;fontSize=12;fontStyle=0;aspect=fixed;pointerEvents=1;shape=mxgraph.aws4.sagemaker_model;rounded=0;shadow=0;" vertex="1" parent="x80hW29TsDqjKM8EVXJ8-22">
          <mxGeometry x="40" y="166.4" width="197.21" height="197.21" as="geometry" />
        </mxCell>
        <mxCell id="x80hW29TsDqjKM8EVXJ8-41" value="&lt;font style=&quot;font-size: 48px&quot;&gt;V2&lt;br&gt;&lt;br&gt;&lt;/font&gt;" style="sketch=0;outlineConnect=0;fontColor=#232F3E;gradientColor=none;fillColor=#56C0A7;strokeColor=none;dashed=0;verticalLabelPosition=bottom;verticalAlign=top;align=center;html=1;fontSize=12;fontStyle=0;aspect=fixed;pointerEvents=1;shape=mxgraph.aws4.sagemaker_model;rounded=0;shadow=0;" vertex="1" parent="x80hW29TsDqjKM8EVXJ8-22">
          <mxGeometry x="300" y="166.4" width="197.21" height="197.21" as="geometry" />
        </mxCell>
        <mxCell id="x80hW29TsDqjKM8EVXJ8-42" value="&lt;font style=&quot;font-size: 48px&quot;&gt;V3&lt;br&gt;&lt;br&gt;&lt;/font&gt;" style="sketch=0;outlineConnect=0;fontColor=#232F3E;gradientColor=none;fillColor=#56C0A7;strokeColor=none;dashed=0;verticalLabelPosition=bottom;verticalAlign=top;align=center;html=1;fontSize=12;fontStyle=0;aspect=fixed;pointerEvents=1;shape=mxgraph.aws4.sagemaker_model;rounded=0;shadow=0;" vertex="1" parent="x80hW29TsDqjKM8EVXJ8-22">
          <mxGeometry x="570" y="180" width="200" height="200" as="geometry" />
        </mxCell>
        <mxCell id="x80hW29TsDqjKM8EVXJ8-23" value="Serving&#xa;" style="swimlane;startSize=0;rounded=0;shadow=0;fontSize=60;strokeColor=#000000;strokeWidth=2;fillColor=#D5E8D4;gradientColor=none;align=center;" vertex="1" parent="x80hW29TsDqjKM8EVXJ8-7">
          <mxGeometry x="2170" y="320" width="740" height="550" as="geometry" />
        </mxCell>
        <mxCell id="x80hW29TsDqjKM8EVXJ8-47" value="&lt;font style=&quot;font-size: 48px&quot;&gt;Staging&lt;/font&gt;" style="aspect=fixed;perimeter=ellipsePerimeter;html=1;align=center;shadow=0;dashed=0;fontColor=#000000;labelBackgroundColor=#ffffff;fontSize=12;spacingTop=3;image;image=img/lib/ibm/devops/continuous_testing.svg;rounded=0;strokeColor=#000000;strokeWidth=2;fillColor=#D5E8D4;gradientColor=none;" vertex="1" parent="x80hW29TsDqjKM8EVXJ8-23">
          <mxGeometry x="80" y="120" width="240" height="240" as="geometry" />
        </mxCell>
        <mxCell id="x80hW29TsDqjKM8EVXJ8-48" value="Production" style="pointerEvents=1;shadow=0;dashed=0;html=1;strokeColor=none;fillColor=#EF8F21;labelPosition=center;verticalLabelPosition=bottom;verticalAlign=top;align=center;outlineConnect=0;shape=mxgraph.veeam.production_site;rounded=0;fontSize=48;fontColor=#000000;" vertex="1" parent="x80hW29TsDqjKM8EVXJ8-23">
          <mxGeometry x="440" y="120" width="220" height="240" as="geometry" />
        </mxCell>
        <mxCell id="x80hW29TsDqjKM8EVXJ8-45" value="" style="shape=flexArrow;endArrow=classic;html=1;rounded=0;fontSize=48;strokeWidth=4;endWidth=180;endSize=27.799999999999997;exitX=1;exitY=0.5;exitDx=0;exitDy=0;width=80;fontStyle=0;spacing=1;entryX=0;entryY=0.5;entryDx=0;entryDy=0;" edge="1" parent="x80hW29TsDqjKM8EVXJ8-7" source="x80hW29TsDqjKM8EVXJ8-15" target="x80hW29TsDqjKM8EVXJ8-22">
          <mxGeometry width="50" height="50" relative="1" as="geometry">
            <mxPoint x="1700" y="580" as="sourcePoint" />
            <mxPoint x="1080" y="590" as="targetPoint" />
          </mxGeometry>
        </mxCell>
        <mxCell id="x80hW29TsDqjKM8EVXJ8-46" value="" style="shape=flexArrow;endArrow=classic;html=1;rounded=0;fontSize=48;strokeWidth=4;endWidth=180;endSize=27.799999999999997;width=80;fontStyle=0;spacing=1;exitX=1;exitY=0.5;exitDx=0;exitDy=0;entryX=0;entryY=0.5;entryDx=0;entryDy=0;" edge="1" parent="x80hW29TsDqjKM8EVXJ8-7" source="x80hW29TsDqjKM8EVXJ8-22" target="x80hW29TsDqjKM8EVXJ8-23">
          <mxGeometry width="50" height="50" relative="1" as="geometry">
            <mxPoint x="1950" y="600" as="sourcePoint" />
            <mxPoint x="2190" y="587.5" as="targetPoint" />
          </mxGeometry>
        </mxCell>
        <mxCell id="x80hW29TsDqjKM8EVXJ8-34" value="" style="shape=image;verticalLabelPosition=bottom;verticalAlign=top;imageAspect=0;aspect=fixed;image=data:image/png,iVBORw0KGgoAAAANSUhEUgAAAu4AAAEhCAYAAAAgSyU2AAAAGXRFWHRTb2Z0d2FyZQBBZG9iZSBJbWFnZVJlYWR5ccllPAAAAyhpVFh0WE1MOmNvbS5hZG9iZS54bXAAAAAAADw/eHBhY2tldCBiZWdpbj0i77u/IiBpZD0iVzVNME1wQ2VoaUh6cmVTek5UY3prYzlkIj8+IDx4OnhtcG1ldGEgeG1sbnM6eD0iYWRvYmU6bnM6bWV0YS8iIHg6eG1wdGs9IkFkb2JlIFhNUCBDb3JlIDUuNi1jMTQwIDc5LjE2MDQ1MSwgMjAxNy8wNS8wNi0wMTowODoyMSAgICAgICAgIj4gPHJkZjpSREYgeG1sbnM6cmRmPSJodHRwOi8vd3d3LnczLm9yZy8xOTk5LzAyLzIyLXJkZi1zeW50YXgtbnMjIj4gPHJkZjpEZXNjcmlwdGlvbiByZGY6YWJvdXQ9IiIgeG1sbnM6eG1wPSJodHRwOi8vbnMuYWRvYmUuY29tL3hhcC8xLjAvIiB4bWxuczp4bXBNTT0iaHR0cDovL25zLmFkb2JlLmNvbS94YXAvMS4wL21tLyIgeG1sbnM6c3RSZWY9Imh0dHA6Ly9ucy5hZG9iZS5jb20veGFwLzEuMC9zVHlwZS9SZXNvdXJjZVJlZiMiIHhtcDpDcmVhdG9yVG9vbD0iQWRvYmUgUGhvdG9zaG9wIENDIDIwMTggKE1hY2ludG9zaCkiIHhtcE1NOkluc3RhbmNlSUQ9InhtcC5paWQ6REU5ODg5MUU1QzBEMTFFOEI3MDJCODY1QUJBQTAzQTciIHhtcE1NOkRvY3VtZW50SUQ9InhtcC5kaWQ6REU5ODg5MUY1QzBEMTFFOEI3MDJCODY1QUJBQTAzQTciPiA8eG1wTU06RGVyaXZlZEZyb20gc3RSZWY6aW5zdGFuY2VJRD0ieG1wLmlpZDpERTk4ODkxQzVDMEQxMUU4QjcwMkI4NjVBQkFBMDNBNyIgc3RSZWY6ZG9jdW1lbnRJRD0ieG1wLmRpZDpERTk4ODkxRDVDMEQxMUU4QjcwMkI4NjVBQkFBMDNBNyIvPiA8L3JkZjpEZXNjcmlwdGlvbj4gPC9yZGY6UkRGPiA8L3g6eG1wbWV0YT4gPD94cGFja2V0IGVuZD0iciI/PmI49fkAADjUSURBVHja7J0JvFVV2f/XCRFQxAHINPXigCbmgInhPJCZvZrlVFqa/dPKN0+ZpTmVaA6oVNYxzdQyLX3TBm3QMjHMVAYVFEcc4DgrFxEHRATO/3k8m7wi3HvOvWc9a629v9/P53ED3rvXXs/aw28/+1nPKjkAADCjVKluIJvhYkPE1hNbN7PBYiuL9RZbdTm/PlfsTbE3xF4WaxebLfai2JNiT4lNV6uV217D2wAA+aFWq7kSbgAA8CbSVYDvKraj2EfEtu5ElLeaGWJ3i00Wu0Vsioj5RYwKAADCHQAA6mJ9Q9nsJ/Ypse3F3hfJoc0Ru1XsGhHwVzNSAADpCfcVcAMAQI/F+gDZfEHsMLGPRnqYq4t9WuwFMYQ7AECCINwBALov2D8km29lon2lRA77FkYOAADhDgBQFMGuk0tPFds3wcP/FyMIAIBwBwDIu2DXijBjxA5MtAv318ptsxhJAACEOwBAXgW7psGcLHacq5drTJVxjCYAAMIdACCvon032Vwmtn4OukOaDAAAwh0AIHeCva9sxop9PSddWiw2npEFAEC4AwDkSbRvIptrxLbIUbd0Aaa5jC4AQLq8DxcAALxLtO8tm0k5E+3KzYwuAADCHQAgL6L9O7K5XmxADrtHfjsAQOKQKgMACPZKtSSbH4kdk9MuviV2GyMNAIBwBwBIWbT3ks1FYkfmuJuTauW2eYw2AADCHQAgVdGukfYrxA7JeVfJbwcAyAHkuANAkTm/AKJdGc9QAwAg3AEAkqRUqZ4km28UoKtviN3JiAMAINwBAFIU7fvJ5syCdPeOWrntTUYdAADhDgCQmmjfXDZXFqjL4xh1AACEOwBAaqK9v2yuFVupQN2mfjsAAMIdACA5LhTbpED9fUXsLoYdAADhDgCQDKVKdX/ZHFqwbt9WK7ctZPQBABDuAACpiPZBsvl5AbtOfjsAQI5gASYAKALnig1KvA8LxJ4Xm5P9eclKqH3EVhFb3703d5/8dgAAhDsAQBqUKtUdZfOlhA55sdg9Yndndq/Yk7Vy2/Nd9FNXgd1SbE+xHcQ2FruPMwAAIEfPNFwAADkW7XqPmyS2TeSHqnXW/yz2F7EbRKTPZvQAAKAjtVqNiDsA5JqDIxftj7l67v2vRKy/xHABAEBnEHEHgHze3CpVDUw8LLZhhIf3lNhosSuo+gIAAI1AxB0A8swXIhTtKtLPFBsjgn0+QwQAAM1AxB0A8ndjq1S11O1Drj5BMxZ0ougXRbBPZYQAAKBZNOJOHXcAyCOfjEy0XyH2UUQ7AAD0BFJlACCPHBPRsZwqgv10hgQAAHoKqTIAkK+bWqWqkfZHIjmc/xXRfhGjAgAAPYVUGQDII0dEchzfRbQDAEArIeIOAPm5oVWqvWTzjNiagQ/lEhHtX2FEAACgVRBxB4C8sVsEov0OsaMZCgAAaDUIdwDIEwcHbl9XPz2gVm5bwFAAAADCHQBgGWRpMvsGPoxviGh/jtEAAACEOwDA8tlebGDA9q8X0f5bhgEAABDuAACds0/AtjU15lsMAQAAINwBALpmj4BtX1Art81gCAAAAOEOANAJpUp1kGy2DNT8XLEzGAUAAEC4AwB0zS4u3LoUP6+V2+YwBAAAgHAHAOia7QK1+5bYT3E/AAAg3AEAGmOHQO1eVSu3PYv7AQAA4Q4A0AWlSrW3bLYO1PyljAAAACDcAQAaQyelrhig3SfEbsf9AACAcAcAaIxtArV7Za3cVsP9AACAcAcAaIxtA7V7Da4HAACEOwBA3MJ9Rq3c9iCuBwAAhDsAQAOUKtWVZbNpgKb/ivcBAADhDgDQOFsHuo/dgOsBAMCaFXABACRMiDSZxWL/KbLTS5VqP9n0MWpufq3cNp9THQAA4Q4AaTMiQJtTRUi+VnC/Xym2v1Fbh4r9hlMdAIBUGQBAuDcLtdud286wrUm4GwCgDhF3gMZ4v9gvjNp6UewruLxzSpXqGrLZIEDTdxTc7+vIZm2j5l6qldumc7YDACDcAZphJbF9jdqq4u6GCFW/fXLB/T7SsK2JnOYAAO9AqgwApEqIFVPn1Mptjxfc7x81bGsCpzkAAMIdANInRMT9btxumt9OxB0AAOEOAAh3hHuzlCpVTa/cGuEOAIBwBwBoVEB+UDZrBmi66PntW4r1M2rr4Vq57WXOdgAAhDsApM1HA7U7Gb+bQbQdAADhDgA5IET99vZaue3JgvvdMr+diakAAAh3AMgBISrKMDGVijIAAAh3AIBGKVWqJRdmYurkgvt9oGyGGjU3T+x+znYAAIQ7AKTNxmIDEO7mWL4sTa6V2xZyqgMAINwBIG22CdRu0VNlWDEVAADhDgDQFCHSZF6oldueQbibQX47AADCHQByQIiKMncV2eEB5hUg3AEAEO4AkLiA1JU7hwdoelLBXb+J2GpGbT1VK7c9x9kOAIBwB4C02Vysb4B2yW+3g2g7AADCHQByABNTw8CKqQAACHcAgKYIMTH1mVq57fmC+90y4n4npzkAAMIdANInxMTUQue3lyrVlV09RckCrd0+hdMcAADhDgBpC8h+svlwgKaLnibzEbFeRm1NrZXb3uBsBwBAuANA2mxtKCAR7u+wnWFb5LcDACDcASAHhJqYelfB/W45MZWKMgAACHcAyAEhJqbOqJXb2gvud8uJqUTcAQAQ7gCQA0JMTC10mkypUl1XNmsZNTdbXpIe5TQHAEC4A0DaAlJX7RyKcDeH/HYAAIQ7AEBTjAjUbtHz2y3Tk6jfDgCAcAeAHBBqYurkgvvdMuI+idMcAKBzVsAFANCRUqW6lWx2jeyw9g/Q5qtiXxJ/xD5kV9XKbS96OA96u3oJTgtqjlQZAACEOwA0zQFiJ+MGt4rYjyM/xgViv/C07y3F+hr142F5+ZjLKQcA0DmkygDA0myAC5LhDhG88zztm/rtAAAIdwBAuEOLGOdx31SUAQBAuAMAwh1axM0e921ZUYaIOwAAwh0AmqFUqfaXzWA8kQSvOE9Vb+Q8GOjs6ua/LnY/wwkAgHAHgOYg2p4O42vltkWe9m2Z336Xx34AACDcASC3rI8LkiEv+e2kyQAAINwBoBsQcU8Hn/ntVJQBAEC4A0DkEHFPg+dq5bYHfey4VKnqc8FyYioVZQAAEO4A0A2IuKeBzzSZTcRWNepHVV5AnmM4AQAQ7gCAcEe4N89Iw34QbQcAQLgDAMI91/jMb7cU7uS3AwAg3AGgWUqV6tqy6YMnomd6rdz2tMf9MzEVAADhDgCRQ7Q9DbxF2+XlbWXZbG7Uj7fEpjCcAAAIdwBoHirKFFy4CyMMnwtTa+W2+QwnAADCHQCah4h7/CwWG+9x/5ZpMkxMBQBAuAMAwj233FMrt83xuH/Lial3MpwAAAh3AOgepMrEz82e928p3CcxnAAACHcA6B5E3OPHW/32UqW6nmw+YNSP9lq57TGGEwAA4Q4AzYs2LQP5QTwRNW+K/cfj/rcz7Av57QAACHcA6CZDcEH0/MdzFRbqtwMAINwBIAE2xAXRM87z/i3z24m4AwB0gxVwAQAI94t9JpJj2VnsWwHaPVZsRsRj5C1KXapUe8tma6N+1BDuAAAIdwDorpIqtz0pmydjOBYRkSMCNLtI7OfihzcKegoMF+tj1NZD4udXuOqWzagJ7SXZrJpZqcP/elVswbiRg17FSwAI97ygFRE2Exvq6hUy1hIbLLaS2IDsZ3SZ7dcze15sltjjYo/qA0XshZz5pK/YpplPtGrEumKDxNYQ65f5RVOmNAo2V0xzaOeJPSs2M7MnxB5w9clxAL75SIA27yuwaFe2NWyr8PXbRZyvI5sts+fVRq4+x6Stw725s99dmD23nsmeYdPFHsnsHoQ9AMI9ZobpfUxs9+zBs3YL9vm0q3+Svk3sBrHUSpZpLe5dXT3dYGQm2Hu1YL8LxKaKTRa7VeymTOgD5EG4311wn1tWlClU/XYR2nr/3UZsJ7FdMl8P7OFze63MlqYm7T2S+fhfYuNEyD/FLQUgP5QSfah/Vmx/Z1N3WqPxV4v9VuzhSH2iUZtDxPbN/myBfrkYL3a92O/E2nN+rQxxdvnPVVfQKi9ZLfFqgKaPqpXbfl7YB0GlqgEKqwnKW4ivp+VcrOucgU9kz6m9eyjUe8r07D79R7GJIuRrSB+ANKnVam8L9/MN2tJPeuf14PdXFjtc7EhX/7wYiv9k/tKb4MLA46f5qIeKfUVsROBjURF/ndhPxG5HuCPceyAg95PNHwI0va2IyckF9bmmZ8wyau41sdXE14tyKtg1sHSEqweXVo/wEDX6/huxX4qAf6wA57Z+cf56gKZ/Juf4o4n6TFNoz3T1FFr90j6vo2507/3SrqlZHa/n+ZktYWF23Xfk5aX+/qD4a0HC989Tsr9qumXHlOI3s3/rqJVe7/D3RZn/OvPv3Ozf32bx0etN1U9u3zTo273dFO6riX1b7KjAEYsl7JiZRuFPdfVI/GLjY9CXmLLYMWJrRnLuanTpwMy0WsRosb/zbgzdIESajD5Y7iuwzy3rt0/Om2jPousHZffkbSI/XJ3jdKKaHLemPP5U7DoR8Ytzem5baZyl0SDfo4n6TP1lXdVLdVWqQb+jDc8xTX/bPdY67jqh8jhXj3CeEolo78iGWdRCc763N2pT8ySPyG4GZ0ck2pclAm4Uu1lsC3QoJCDcp4mYLPLEa1ZM7Z5g7yemYv2J7HmwTWJd0Hx7/bo1XfrxdbEVc3huh6qUNTBFZ5UqVT3uEwI0vVGi/upv/GJ4uv4nRuGuk001+nWuq0fcY2bz7M36YrH+Htv5cPY2eolb9oQkF+k43iN2jqtXrwGIVbhPLrjPLSvKJL9iqgjcFcSOzAT7j8XWSbxLGoi6QOwx6dcR2r+8nNjyQq5pCbMR7g1zkquXIUW4N8bXDXXqrXI+j49NuGvJxl+4eqR2aEovXa6eZ64idbiHfX/X1StefDTBk1q/EhyfHf+WDqDz6IVOTB0UoOm7Cuzz9xnfW5IW7iJq93D11E99Vn0gZ6eDptFocOhB6ecnctSvEFH3gQneC4a4etpHCIYm6C8NSB5j2OToJX+IRbhvlom7IxO+OeiJp/WJD27R/rSW75/Fxoil/glT68jrJ/LDkafQCaFSDYpcCvJD7p01LnxTrZXbklwnQ4TsB8WudfUyuMNyfk7os+xG6e/1YkMQ7t3i/Qn66QcBtcbQBP11uOHL+3+j7bEI9//JBO+HcnCD0EovV4l9r4f70U+XGpnaO0cPA/XNr8TGujTLkIJ/QqTJaCWDaQX2uWV+e5LRdhGv+oDWBegOKNi58Smx+7P895Tv2SHKyyYVcS9VqlvJ5vMBD2GjxPyl6WSWcwFGd/xLaOH+VVePKq+SsxueTiAY083fHZG9yAx1+USrBF3pWrMoFCDce4qumPpWgX1OmszyBftAseuygMOqBT0/tIqZ5r//LuE+kCrTNToXLeTL2QARw4MT8tcXXH0legveFW0PLdy1xOPPXZwTZFvBd5d+S2rwIao5/oNdvtE3+ysQ7xCBcC/6iqkjDdtKpqKMCPYdXL1Iwr5clm8XRvh2wsdPxL0TRDB/TDYfj+BQNk7EX6pZjzds8j1B4FCiWYXbhQW44Z2avZk1gk5s1fzJAa4Y6EqvF/NMhOxmGGpi6t0F9rlWwrJaaVlTku5JRLTrOhlaL3ntgl+WWttdF+LZZdzIQU8l3I8QEfc1E7kHaJT9nEgOJ5V0GV0kcFOjtibWym3vWRMnRNmn3Vz902NR+KWr117vLNqkouWGAon2JXzZ1RezOhvpWnhCTUydWGCfa1qeVfBmauy18rMyiJoW8lUuR/ec2BdEsN+Sg76EEO79RRSvmMBqoFpMY2uEe1OcbNjW6GX9o3XEXWuQa65c7wLdALWvV3UiyjW/X/P8P+CKyRmuPkEZik2INBldlvvBAvvcMk0m6vx2Ee1ajvgGRPvb6AJ6W+ZEtGst9+fdu5ehtyLqdBl9sciev7EQ/bw+8ZmWSd3KqLllRtuthbu2pavL5T1/e1lsIFZZzv+71BW7xrmeF792fJZGuNtzr9wYFxbY50xMrYt2TdHS1Jg9Cn4N6iRtXbH8f0S0z8pZ35ig+l50nuH6CPemOMmwrdGdiSYrjhDbvcA3xcPEdl3q33ThpoPQbG/f4H6FGxDuxjAx1Y4oU5JEtA/ORPu2BT8XdBXYHUSwjxWr5bB/IYR7tEHKUqWqVZK+F9lhRZ0qIz7bSTY7Wd0vlxdttxTuupjQOQ50Qu6SeQVat/4nuOS/fDx7uYGCwcTUID4f4uwm0M2Sh9ATEYp2fS5pOsiHC34JavrqcBHsk3PcxxCVZQZF7A/9shLbF4HYS0IGz223Fu66lPJqSJS3ZyJrlRmdya0pMn1xybvQxZlWxQ2FI9TE1LsK7HPLNJnoou1ZTvuNBRft88SOFMH+ObFXct5XUmXeeWnXtNRjIx2njSP1mVb929Oouali/4hBuMM7fF9My43tgCveg75tn4QbCkeINBkVLUxMteHOyES7rh/xR1fs9Jj7xUaIYL+0IP2llvs7nCbWL9JjizVdxjLaflqt3FZDuMeFTgYhRWb5fMPVqw8Bwt0nUws+MdVSuE+KrO9a8nHPAo+9rp+xrYj2Ir24kuPu3o4c61f/L0U8ThtF6LNhrl673eS5JHZ9Vz+0ggOIC00f+pazXZkMiifci5zfrmXghhs1p5GjaFJlRk1o10oaX4t8iGa7eoRYK7toCovmSu/Wgv2+7OqpMb/3fH7p+hzryIvxaQj36NBVOGNesTzGyjKqRUpGbXUZbUe4Q6zog/UHYq/iityLyA1cmElcRc5vV9Hex6itB+VBFMV1LKJ9Oxff184XxcaL3ZG9TE4TYT13qeM+qAXCXctxHiz7nunxWta1SjSa/7ns71pu9boCC/eoUmVkPHaUzacivzcNjcxnWjjhC0bNNRRtR7hDrOiiVFph5me4Ivd8JFC7RS4FWbj67SJ+V3fxLP6nIvJqV8+zv0vE9OIufn6lHrSl0btzxb4n7bzlUeBsk/l3gw7//Gud1BdDRSFdwVSORRdislzoMLYc9xQq+8WWKnOCs/tC0VC0PVXhrje5RzPTG8IcV/+cuDi7wemki7WzG4i+vX2wYA9l9cP0zB7PfPNyB0GsqSjrZf7RfLfVI+3H/0O4I9w9oRNTHy6wz4tYv/0SV69uFkw7iv0lu6fd3IBY70h3XzZeEDtM2rrJo2DXFAKtUHL2Mo5TI/BXys/sLIJkUQTnQNVYuEdTDlLGQHO0t0/g3vR2SUg5X2ZF4DOda2c1H+A+12C0PSXhPjt7m9fyXbeJzW3id1Wk7uzqn4j2cfkswajC/P/EtGD/+Cb8U8rE+65i+7v659hSJH3aWmwzsQfQtgj3FjM1EiERCsuIe/CKMqMmtH8+u7+FEux6b/6BCOiHurmPlbvxO//MRPvzHoWNCtMrxPbq5MdULB6fCfsYhLvluR9FjruMk+q8sxK6P2lJyBhW7j3GUC+e3Wi0XYm9qsw9Yge6epWRr4v9tUnRruhnyd+4+gql+ratEx+fd/lAHwSfz/p1VPbG1ox/9ETRygK6MNSo7CVHP6e9Hkn/DkTXItw9MLGozpaH+Pvdu9MZfPKaC1xyU0S7LjL100DNa5BpaxHPh/RAtCvNBNi0UtKJYp/wLNo1yHNfF6J9CaOzaiahsc5zX1n63SeCfuvX600Suk0FT5eRcVs905xWOu6aZn4hVuE+09Wj4/pQ1xnwrcrNU1F7vquXZNR66gsSff4+lwl2XTzkKrE3W7Tfp109p0v9c3kE/dwXXZtrEakCMkSqVpHz2y1rl+uy3YsD9/dHrr5ytyX6nNFP7LuIeJ7agv31b/DnNKK8s7Q5pslUnGau2V5iWjjgZtd42V6tYnRhllZTJOGuBM1zF5/r15qYqvskIdyFb7rufenqDqc3e5+MUbjrrH9Nkfirxzbmu3rVEq2u8EhiJ7V+mhyWCXZfD8VZ2YNHoylzAvZ1K2ebkwi2MDHVnu0M2wpav33UhHaNCh9i3Oyt+vwS4Xy5WK1F+2wk4v4HfZ5Jm95Sk0QEruPqqZindEM77OrsqnN09mJjTeg892MTfIYGrSwj57m+KB9t1FzT0fbYhLtOGNMyUsdkf7ZAP+OOzKIHsaNfHbRM4hfdO5NNfaM58yNcfZJrKHZF3yLcW4imb0wvsM8Lkd8uol2fbecbN6t53KNEPD/T4v12FnHXINRR0uYBYt6CLCJm9Ounpsbs2BP/yH5CrtgZIuL+/oACVHPsj0vwHhW6JORXnd2XktO781UylsmpWvnk4y5M7qmKYL0paYR/t0hP5DdcPXVoXIC2H8/E83ixDQO0v4urT+4ChHsrmBJB+kaoB7mKWdNUmYDd1QDHFkZtaVDliyKcr/a0/+WVo9No3Wel3WkezxnN0T5PrNyC3WmFt2+LnVEg4R4yVeZ7rl5JLjWCpcpk5/t3jJrrVrRdiSHiPi+gaO94DCreY4zEaR7+3oFE+xI09/1/XD1aac026FuEewsp8sJLmxo+yGfIC9KLITo5akK75lRb5fVqUGUvj6LdLWfMLhMb4Vm0a3WPCS0S7Uv4jux3tRDnhZyPLwV4hgUR7uJjDbLFvkLw8hiQfS0IgaYIW6UWndHdIFIMwv1wF0eVB13d7wDXuomereIrYrdEcBw6F+DLAdrVqFlvB7ki4MTUyQV2u2V+e8h7ulbRsKjZrgGfPUQ8+w6qvG+p55SugHqE2Oser09dAE+rum3V4l2v6urpsKGwjrqHirifmfhzc+MAzyTNQDneqDnNZLimFTeEEPxQ7NqIThaNXoyJ6Hh0sY5fR3Q8eqL9xbhNjZ5FtQwytIRQE1OLHHG3TJMJsmJqlttukder6TH7ini+3aCtAR3OXZ2A6jV1UATMmOy546uqxjHSRqgUDusJquY57tkqtp9N/F4VIl3mYFevqGeBRtsXpijcNYJ7SoQnjNYxfyqC43jM8O2vGb7pWlees1FSqkEL8Qr3V7LrqqhYRtwnBOqjrhBpUaf+yyKgrYoaaBlFDXLtIG1aFArQtB+fa3lo1P3wQOdHESLu5+TgXmUq3LP5PycaNafX8G96soOQwl0XDJof4QmjOYvnRXAcRzi76jrNMEPstwV4+4b8Cfe7m1mdLk9kEc5hRs3pvJypgbpaNmhjrAjoKw37dJy09x0xk3VH5Bq519XXCfHJ0YHqultH3AcaX+dawnn3HNyyrL+yf8rV5wBZ0KNoe0jhrssx/yvik+aXrvkVWluJVri5NWL/jDVu74PoXIR7K4R7gf29reH9Xiv3mM8VGjWhXV9MdvbcjK6GeqJlv0SwmxdNkPHTVbh9po1qDvPHEO4tFe3vc/5TfacZvZRbC/eTjdrpcbQ9pHA/PfKHnH4m/H3A9r8XuX8eMBZBa6Nz8wMrpgbBsn57qDQZ35PndWLoYSKkFxbknDlV7F6P+/9igD5Zp8pY5rjrAle+S6CelIl335h9ZZfn0Z7Ornpdj6PtoYS73gj+k8BNK1Tt8FtduM/MsfpnsIM8wYqp9ow0bMu8osyoCe1a69z3KqnHi2ifWZQTRgTGgkwM+krR2U9E04CcC3eTlVPFj32d//r4t8s5odkADxt0ybIkpNUXNP3a85tW7CiEcL80kfuWvly8EaDdixLxz02Gba3mAOHeM+bIQ+fRAvs87yum7ur81l/Wrwi/KNpJI9fM/c7fCrS6iuo+xl3SVW0XGbbXz2i12KOd/xKoSwTug0a+814SUsZme1df5NGCMa2ItocS7n9K5J41P8ADSNv8cyL+0c9lsxHukIhwL2y0XR5OWuLM6pP9i/Jwmhmgm/t53v+x40YOWlzQU+gssVmJjtvSLyKLMvFuyUDP17c+H0/y3Ie/ie9uy/78sJHfLNJlrCobaqXCX7ZqZ9bC/Z4AF01Pj9eSf7gwUf5u3QOdXUpPyQHCHeHeXSzTZMzz20dNaNf7w74em7heRPudRT15RLBpoYbRnna/Z5bmYYn1BFXfKR86sdLnnKGae/fkTS2pazHPw6twl/NuuGz2snr5zVLPkhTuMVdKWRb3G7f3z8T8c59RO/0c5AImpgYh7xNTP+z8Vp46jSvXXSb2gof96iJPOxj3JTd57nI/1fSYoz0f/9VZidAlL3Iq2i0qHfmuLPNdo/FvabQ9hHCflNjN6nHj9iYm5p8njNrpw3MzNzAx1Z5cT0x1fssK3jJu5KApRb9os/KeFU+7H5Vz4e4zVUYr9Pn8YqGLLX5/Gf/+SMrCXV54NH/+IKPxb2m0PYRwv8+lxfOGbelb7L34BxDuLUcnpj5RRGfLA0pfeocbNac54JMDdHM3j/uucMn+Fy2cMD+x8VsWuajlLtf25s5/Sc1L5N65rACmRTaCz1QZnWhrkYLb8mh7COGe2sOz3TgK8Bb+AYR7y5lcYH9vJbaiUVsPykP+1QB99PVF4UWxv3HJ1pGxfcn5KZ4wXERo7xwLd1857mM8i09dz2Z5JSYtIu5eSkLKPtdz/lcGXsK5rY62Wwv3Fzy9rfvE8iE0I8F7+asOoPEbpj5kRgRo+q4Cu90yTcZ8AueoCe0beBRG14wbOegtrtx3cbWHffbJXjCtsE6V8SE+d5XNJz0f909EdD63vJd0I9/5KAl5nJjFi6JmJFzmY8eWwv2lBG9SlvVe2/EP5Bz99LlqgHbJb7chxBymLT3u+09csu/hRrFXPOzXUrgnnSqTBUDO9XzMc8TO6+T/a8S9ZvTMaKXv1pTNEUbjfo68+HipEmgp3N/kntcp83EB5JxQE1OLHHHP+8JLvoS7Pq/u4JJ9N9kk1X952PUwwz5oCohlILHVOe4HOP9fLs8WP73ciQ/nOZsvF63Oc/+W8zuZdwkabb/Y184thftcbnud8jIuAIR7y2mXh8yTRXR2Fl1a36g5TZt7KEA3fa2uOGHcyEEEU5bNeA/73NS4D5ZR90EtvKY1xeNsz8f7rNgFDfzcAwa+G9pC3+lCVUcZjbm3aLu1cAcAhLs11G+3YZI8qEKsLOqr8sStXK6mvlnfuA+WL/OtzHH/qtiGno/3tAZFZ2olIbXe/QCDY/YabUe4A4AJWV4mwt2WvNdvV4Z42u8ErtrloqUAW71y5no5Fu4tSZWRe2h/t+ya6q3kUdd4+UKLiPtGLfTdMUbj7TXajnAHACv0BjwgQLsTC+zzXOe3j5rQvoLzV1HmAS7ZZSOiRCvttLq0c18RVwMNu2GZKqN9W6kF+zne4/m+hFOylVEb4WED37WqJOQRzu9CWEuYLfYL340g3AHAAlZMNUQedr1ks23OX5De72m/Wnf5KS7ZTvGRJrGG4fEntXqqXM8fkM2xno9RVwi+tomft5rTsnEPfafrWBxndKxjs4m7CHcAQLh3gxfkJvpMQf2tk/36G7X1uPh5VoA+ru5pv0+PGzmoxiXbKdWExtPq+DtjzR7+/qliK3s+xhPkOm74vM8W5HrBwHc9TZf5ktjaBsep0fYLLE4mhDsA5FW4Fzm/fTvDtiYF6uMqnvbLitBd46Oc4kqGx59MxL1UqWrE+UjPxzdehPhN3fg9i3SZjXrgO02ns4y2v4ZwB4DkYWJqEPJev13xVY95Dldtl/go77yK1cGLwNLKHwsM/dWTVBkt/9jL8/Gd0M3fs1hBtSeVZQ50/qvwKGbRdoQ7AFgQamJqkRdeKkJFGV9Qvz2McO9l3AfLdJluCfdSparX8X6ej+06eZHp7jVsEXEf2k3facDoZKPxNYu2I9wBwIJQE1MnF9HZ8sDSyKXVSpS6kuZUTvHCsSgHfbBMl+nuROrzPB/X4h6KW4uIe3dTZfYV28zg+Eyj7Qh3AMircH+2Vm57rqD+1jSZklFbU8TPC3LmvwFcsl3Sx8M+XzPuQ9S13OUFfB/Z7Oj5uK6Q67cn4jvmkpAnGI3tTy2j7Qh3AMircC9yfrtlGciQCxX5emFYhUu2S1bzsM+Fxn2INlUmK+c6xuD6ObUnOxDB+rRsXjXw38ZN+u9jzmaej6aM/dT64kO4A4A3Ak5MLXJ+u2VFmZDC3VeUi4h71/iouf6ycR9ijrgf7vynu10kwrsVPrCo595suoxVbvv54kPr8xbhDgDeb7ghhBAVZWwIOTF1tqf9Dhk1oZ1nY+es52Gf1msBWEbcG85xL1Wq/WRzusFL7xkt2ldUwj2b0LurwTFptP38EBcfNycA8AkrphoiDy0tfTbYqDld4GpmDoW7rrS4Lpdup2zgYZ/W9fMtI+6DmvjZY5z/BYN+KNduq/xtIdybqSxzktGYBom2I9wBII/C/dmsTnMRsYy2h0yTceNGDtKyjS952v1QLt1O2bTF+5sl1+ybxn14yrCthlJl5MVbf+67Bi+8Y1u4v2iEu/hvC9nsY3A8waLtCHcAyKNwn1hgfxetfruvqOk2XLrLFUcfcq2fwDvTuh/Zi4LVC/6K4rf+Dfyc5mav6vlYzmhxFZSYUmVyH21HuAOAzwc8K6baU4QVUzsyw9N+d+AKXi67etjnY4H6YpnnPriL++UQ2Rzt+Rj0K8OFLd7nE87/KrRdloSU/6/i/kCDcXzdGddtR7gDgBVMTLV9UdLa2sONmtOFW2Ko3ONrAZjtmaC6XHZMaBy7IqY8d50s2tvzMXy/1esuyP50Ma5HDPzXVUnIE4w07QUtnB+AcAeAqGBiqi1bGzz4l3C/9aIjxoJPyx1uzyX8npdD/Yq2m4ddTyuAcB/YiV/1hfsQz+1rSssVnvZtsRDTRp34T6scHWZwDBptHxv6OkS4A0CehPtTIihnFdTfhZmY2oF7PO77M1zCyzzHfFQ8mRKoP7EswnSu87/a8Ulyb1yc2At0Q8JdONbZBC2CR9sR7gDgkxEB2izywktFm5iqTHf+FmLan3SZ9/BZD/t8rkULAXWH4Kky2SqfHzO4Xq/3uH+LiPvQ5fhP/foVg/ajiLYj3AHAC3Iz1XtLiIj7ZIS7CVFE3MeNHKQRxNs97b5N7ONczf+9prW+/Rc87Po/AbsVdBGm7D55rkHbJ8jLUc3j/i0i7ssrCanR9n4G7UcRbUe4A4AvdCJR/wDtFjLiLgJgzUxoWvCKs4mwNcptHvd9FJfyf9GKHYM87PffAfsUOsf9YOd/QvlNIjjHe25Dv3wt9tzGRsu4760mm/81GLtoou0IdwDwBRNTbTFNk/GYK9sdxnnc996jJrRvxOX8Nsd42u+NoTok5/FLmSgzF+7ZF4wzDNo90cCPuhjaTM/NLKskpL5Yr2rgw0tjibYj3AEgT8J9RvYgRrj7ZVJkfdfjme3xGTm66BezCKZPOD+LUj0h1+zjgbtnlS6z9NcKjRQP8dzmNeLfe4z694BBGxt3OCc1PebbBm3qS8k5MV2PCHcA8EGIlSdZeMmGO2PqeJbnfoPHJg4ZNaF9WIFFu+qEszzt/roIumiVLjO4g081xeMUz+0tMmijIxa13Dt+/fqq67xST6u4WF5+nkO4A0DeH/TDAzRd1IWXeslmW8MmJ0bohmt9uljs/AJf0l/0eD1fG0H/rCLuHUXmcQai8zIRnI8a+tEi4r5Rds/TNKNjDdqLLtqOcAcAH4SamFrUiPtmYisbtfV4TLmeHbjJ1SfN+mKPURPaDynaiSUCScWlr6onMyN5CTQV7uLTtQ1EpwrO04z9aFkS8lCxdQ3aiy7ajnAHAB+Empg6qaD+LlwZyKUZN3LQm7K52nMzPxLxPqhg59ZPnJ9KMsqvPJcobBSrVJneItpXke3pYn09t1UR3z5r7MeHLIR79kX3RIO2ooy2I9wBIC/C/TF5UM0tqL+LuGLqMoWg5/1ryc0rRLyXinBSiUDSxZY+72n3Ktgvj6SrlrXcdxM73HMbeh8829qJ2f3X98uCpsocJLahQZcuiTHajnAHAB8wMdWW7QzbmhirE8aNHKTHNtVzM3s5m9zapUX0SmIrGLan6W6XemzirwFXS10ay+PQuRK9PLdxrvh2TiBf+p6gOsD5myjdkbdcRHXbEe4A4POBz8RUW3/rg+xDRs3NNxDGPeWnnvevE/D+bjzGm7v6isCLjNrTiid/dn7nqfw4onPmWSvfCut73v/zrp7eFIoHcuBD5ZcRvVgi3AHAK0xMtUXTZKxSN6bIw+ytyP1xVSZefHCJ2IhxIwc9YNUZEdFfc/W5G8Ms8sGlvT6uXqJxE8/n0b9iOWHkWBbK5pmc3A9+IP15PWD7D+fAh3qPOyvmA1zBAQC0DlZMtRfuVtwZuzN0kuqoCe0/lD+e18LdarWaI2Xf1xgKdo16a6rK/h2OwXebWmJPyzPu4rmp0yM8dTS6ul7i94LHnd/0pkZ4MAf31Kij7QoRdwBIXbhPL/DEVMuKMhMT8cnPxV5sYZ+3MhbtOmdhSgfRrtQ8t6mi/fdi+3junqZaXR/hOVPNwb3gVLkPLgh8DA8l7sPoo+0IdwBoNSEmpt5VYH9TUWYpRGS/1qKHr0btd5L9zTAS7CWxE+SP/xYbstT/fsVjuxrd/6eBaFdOjqQE5NI8mfh94F7nvxxql8jYappaykGU6KPtCqkyANAqAcDEVFt/a2k0q7riz6fwQOvARWLfENugG787S+xQEez/MBxLLTV5pdgey/mRxZ7a1YnNvnPal/BPOYduiPR8SV246wvR4kiORdNltkvQh4tcAtF2hYg7ALSKUBNTixpx39awrQkpOUZEt6YMfLs7vyq2hbFo/7irR0z36OTHXvXQrtZon2wk2lUUHRvxKTMz4fvAbSLa/xbR8aQ6QfU3qQQniLgDQKsIkd+un92nFNTf2yPcOxXv142a0K6lGz/RoLD8vtgY+T2TyGVWl/0HYt91XVcGWtTCdge7etnMzxkOx1gRRfdHfLqkHHE/MbLjeSBBH+r1dUYqB4twB4CUhbtOTH21oP62jLhPTNRHR7n6p/t+XYi2g0Ww32F1UCKeh7h6TnKjk4tfa0Gb+oX9CFdPBxhoOAY6R+D0yM+TVIW7LmR1e2THlGLEXaPtj6VysKTKAECrYMVUO+HX19nNJ9AI9OQU/SRifKbrPCL5J1evGmMp2g9w9a9EzVQEWtiD9nTS66ddPR3nYmPRrufO4SKK5sV8nsjx6YvRS4md3vq18aQIjyu1yjJJRdsVIu4A0AoxEmpi6qSCunxrw/v3tMCLuvQUTQvZV2y3Dv/2ptixItgvNH7Z0hVDv9aNX3+tG+3pV4bPunqu/4cD+f48OXf+nch5olH3NRI6r38rvp0W4XHpy7Kustw3ET8mFW1XiLgDQCtgYqotlvXbJ6TsKBHnGpk8TGx29k+PiG1rLNqHufpXi691cxcLG2ynl9jOYlrLXlcD/VVA0a79/X5Cp0pKtdy13vipMR5YVt3mkUT8mFy0XSHiDgCtIER+uz4gphbU39Rvb068Pz1qQvuh8scDxcryd7MvCCKiv+zqUf+VerCb15ez796y2dTVJyrriqdaoSaGqLG+JB0QwYJAzZBSnvvF4tsnIj4+nVeyZQJ+/L/Uou0IdwBoFSHy2x9OPIWjJ7BiavPi/UbZ3Ggo2Ae4ek55K6q3DJX9HS/bVcS0KsxaYhtltmJkrtYo5ucSq/ufknDXe96ZkR9jChNU9UvcWS5BEO4A0Aq2DdBmUSemqmhbz6i5uS7duswhx0hfZH/nurcA1LIYkVkKfF1E+80JDlsqqTLnZyuUxsyDCfjxGvHjgwmepwh3AOixSOklm60CNF3U/HbLNJmJkS5RH+u1oPXYdaGhs8V6F9AF58r5cnGix55CxF1TkMYmcJyxv+zrPe30VC8yhDsA9BRdNn2lAO0yMdVAuHN6NyzaNYXl12J7FdQFKthPSPj4U4i4j5EXo5cTOM7prp4y1SvS40s22q5QVQYAekqIian6UCjqiqlUlIlPtGupyXsLLNqvcvUUmWS/zmTpJzFPpn1a7GeJ+FL9+Hish+cSjrYrRNwBoKeEmJj6oDwc3iigQOxl7G8i7l2Px2hXXwinqIEwLTl5pFyPi3LQF02X2SjSYzstsXueLsS0cYTHlXS03Tki7gDQc0JE3IuaJqM1uVc2autRecDN5vRermhfRza3ip1S4GfpBWJfzoloV2JNl9HUk8sT82WsK6iemfpJSsQdAHoiXkJNTL27oC63TJOZxBm+3PNeV2LVSPPqBXWBphscJ4L9hznrV6wTVE8WXy9MzJcxCvfrI11tFuEOAGaEmpiKcPfPnZze7xHsfVy9qsfRBXaD1hE/TATQH3PYtxiFu97r/pCgL2MU7qfl4SRFuANATwg1MfVehLt3yG9/t2jXfF2tzb5Vgd2gKRv7iWh/IKf9izFV5sREJ/3GVhJSo+25KGhAjjsA9IQQE1OnFXRi6mqy2cSoufkFfjlalu8Pk809BRft/6fXe45FuxJbxP0W8fc/U3SkHPersnkqokM6LS8nKRF3AOgJTEy1Q1enLRm1dbc8eN9CsFc1uHW52KEFdoMKMC31eGUB+hqbcD8xcX9q1H3dCI4jN9F2hYg7AHRX1DAx1RbLFVOp3+7ejhouls1lYo8V1AV/FRtWENEem3D/k/g99QnisZRdPC1PJynCHQC6CxNTbdnOsC3y298R71rycXNXr9c+v0AC9iDp+z5iTxdorN+UzQsRHIrO4zk5By6NIc/9xjxF2xHuANATQqTJaEm0+wrq720N26KizLsF3XwxjdoNc/VVQms57err2QvKptLfaws63DFMUL1C/P9QDnwZQx9Oz9sJinAHgO4SamLqm0VzdKlSHSqbgUbNPVekKGuTAn6G2Oezl9brc9Q1/ZLwE7EN9AVFbF6Bh7kawViMzokvQ6fK/EPO5dyl/SHcAaC7MDHVDsv8dqLtXQv4KWKfdvU5Hpe7dFNoXhI7W6xN+nOM2IuMbvA894tkHJ7MyXUyKzvHQjE6jycowh0AmibgxNTJBXU59dvjFCb3in1J/riOq1cAeSqRQ9d5Il8VW1eO/yQEezTCXSv4nJUzf4YqH5rLaLtCOUgA6A5MTLWFijJxC/jZshkjL7TnynYHsYPFDhAbHJkgvVrsKjne+xi15RIyVWasjE17zvz5iNhOAdodndcTFOEOAN0hRJrMArFpRXO0iMF+zu7rxqICvxy1QsBr+cjb1GTcyrLdReyTYruKDXe2X7l1IvftYjeK3SDHNo0RavgFJwSaVvKjHPozRJ57bqPtCHcA6C4hJqbeV9BFgYYb3qt18u/rnN4tEfH6EnRLZvoCtoZsdnb1sp6bZ7ZOiwXnpOzFS+eCTMxWr4TmCBVxP1PG67Uc+jNEZZmz8nyCItwBoDuEiLgXNRL8AbFbjdq6kVPbm5DXSXrXZeYyMb+6bDbNBPzaYmuJfVCsf/Yjq3XYhYpwFXb6YjXH1fPpZy4x2f8reLk14yTjoj5e2fhl4aKcutRauN8qY/jvvAt3q5JW9yfqIyv/pPgZc66Rf2KIAM4zPBeinijGiqnmQuKPsvkjkiqXY6sC/A48ER1/ElvXsL0L5FxYkFNf6pegm8V6G7V3St5PzhLXJwA0Kdw3C/QivpVW8WAEAACgkC/7tRrlIAGgaUKkyWid7AdwPQAAFBmEOwA0y0cDtKn1shfiegAAQLgDADQOE1MBAAAQ7gAQM6VKVSe0b4lwBwAAQLgDQNwME+sboN27cD0AACDcAQAaJ8TCS2+4MKvvAQAAINwBIFlC5LdPYWIqAAAAwh0AmmNEgDbJbwcAAEC4A0CjlCrVPi7MiqnktwMAACDcAaAJNNreO0C7RNwBAAAQ7gDQBB8L0OY8sYdxPQAAAMIdABpn9wBtTq2V2xbhegAAAIQ7ADRAqVJdQzbbBWh6Et4HAABAuANA4+wjtkKAdpmYCgAAgHAHgCY4IFC7TEwFAABAuANAI5Qq1cGy2TNA06+JTWcEAAAAEO4A0BiHujBlIHXF1MW4HwAAAOEOAF1QqlRLsvlyoOYnMAIAAAAIdwBojL3EhgVqm4oyAAAACHcAaJDjA7Z9J+4HAABAuANAF5Qq1Z1ks0ug5mfUym3PMAoAAAAIdwDoXLRrbvsPAx7COEYBAAAA4Q4AXfNZsREIdwAAAIQ7AERKqVIdKJvzAx6CloC8iZEAAABAuANA5/xYbM2A7d9WK7e9xDAAAAAg3AFgOZQq1QNdfcGlkFzHSAAAACDcAWD5ov3DsvlV4MOoiV3LaAAAACDcAWDZon2Qq0e6Vw58KOMpAwkAAIBwB4Bli/ZVZfM3sQ0jOJwrGREAAACEOwAsW7RrBZdtIzicuWLXMCoAAAAIdwB4t2hfRzb/jkS0K1fUym2vMzIAAAAIdwB4R7TvJJu7xLaI5JB0UuqFjAwAAMDyWQEXABRKsK8om1PETo7sxf36WrntYUYIAAAA4Q6AaK9UR8mmIrZphId3DiMEAACAcAcoumAfKZvRYntGeoh/r5XbJjBSAAAACHeAIor1/rL5jNjXxLaP/HBPYsQAAAAQ7gApiOzestlAbHqt3FbrwX7aZKPpMJ8U20tspQS6f7X0eQpnAQAAAMIdIAV2FLtF7BUR31rpZZzYJLGZYgvFXs5+rq9YP7E1xAaLrefqiyZtJra12FqJ9Xue2HEMPwAAAMIdIBX2zrYDxHbPrAj8oFZue4bhBwAAaAzquAOEZ58C9nmq2FiGHgAAAOEOkASlSnWobIYWrNtviX2pVm5byBkAAACAcAdIhb0L2OdTRLRPZegBAAAQ7gAp8amC9fefjhQZAACAblHCBQCBLr5KdVXZtLviTBKvin2kVm6bzegDAAA0R61WI+IOEJA9CyTa3xD7NKIdAACg+yDcAcJRlGoyi8UOJK8dAACgZ5AqAxDiwqtUe8nmBbGBBejuV0S0X8KoAwAAdB9SZQDCMbIgor2MaAcAAGgNCHeAMBShDOQ3RbRfwFADAAC0hhVwAQDCvcUsEjtCRPvlDDMAAEDrIMcdwPqiq1SHyGZGTrv3ithBItr/wUgDAAC0Ds1xJ+IOYE9eo+2Pin1GRPsDDDEAAEDrIccdAOHeCn4vtg2iHQAAwB+kygBYXnCVan/Z6CJEK+akS6+7+iTUyxhdAAAAf5AqA2DPx3Ik2m8S+5qI9hkMKwAAgH8Q7gC25GG11GfEjhPBfjXDCQAAYAepMgBWF1ulqtfbc2JrJtqFuWI/Ehsron0eIwoAAGAHqTIAtmyTqGhXwf4zsR+KYH+JYQQAAAgDwh3AjtSqyWh5xwvFLhXB/hrDBwAAgHAHKAop5LfPEfuDmOav/0sEe41hAwAAQLgDFA0tmbi72G5iq0d0XM+K3ezqtdj/LmL9LYYKAAAgPpicCmB90VWquvDZFmI7iY0QGy72IcMX6SfEpoiNFxsnQv0hRgUAACBudHIqwh0gDjGvon0DsY3F1hVbT2wtsUFia2TWV2xVsT5i/ZZ1TYu9IrbA1VNeNJKupRufFtNa69PURKi/iscBAADSE+7/X4ABAKPuiN8eAaklAAAAAElFTkSuQmCC;rounded=0;shadow=0;fontSize=48;strokeColor=#000000;strokeWidth=2;fillColor=#D5E8D4;gradientColor=none;" vertex="1" parent="x80hW29TsDqjKM8EVXJ8-7">
          <mxGeometry x="2402.63" y="20" width="477.37" height="183.95" as="geometry" />
        </mxCell>
      </root>
    </mxGraphModel>
  </diagram>
</mxfile>
